<?xml version="1.0" standalone="no"?><!DOCTYPE svg PUBLIC "-//W3C//DTD SVG 1.1//EN" "http://www.w3.org/Graphics/SVG/1.1/DTD/svg11.dtd"><svg t="1512574865192" class="icon" style="" viewBox="0 0 1024 1024" version="1.1" xmlns="http://www.w3.org/2000/svg" p-id="14448" xmlns:xlink="http://www.w3.org/1999/xlink" width="128" height="128"><defs><style type="text/css"></style></defs><path d="M980.757333 193.621333 283.093333 193.621333c-23.552 0-42.666667-19.114667-42.666667-42.666667s19.114667-42.666667 42.666667-42.666667l697.664 0c23.552 0 42.666667 19.114667 42.666667 42.666667S1004.309333 193.621333 980.757333 193.621333z" p-id="14449" fill="#5192fc"></path><path d="M766.208 544.192 283.093333 544.192c-23.552 0-42.666667-19.114667-42.666667-42.666667s19.114667-42.666667 42.666667-42.666667l483.114667 0c23.552 0 42.666667 19.114667 42.666667 42.666667S789.781333 544.192 766.208 544.192z" p-id="14450" fill="#5192fc"></path><path d="M980.757333 894.72 283.093333 894.72c-23.552 0-42.666667-19.114667-42.666667-42.666667s19.114667-42.666667 42.666667-42.666667l697.664 0c23.552 0 42.666667 19.114667 42.666667 42.666667S1004.309333 894.72 980.757333 894.72z" p-id="14451" fill="#5192fc"></path><path d="M109.610667 150.805333c0 24.384-19.754667 44.138667-44.138667 44.138667S21.333333 175.168 21.333333 150.805333C21.333333 126.421333 41.088 106.666667 65.472 106.666667S109.610667 126.421333 109.610667 150.805333" p-id="14452" fill="#5192fc"></path><path d="M109.610667 505.194667c0 24.405333-19.754667 44.138667-44.138667 44.138667S21.333333 529.578667 21.333333 505.194667c0-24.384 19.754667-44.138667 44.138667-44.138667S109.610667 480.810667 109.610667 505.194667" p-id="14453" fill="#5192fc"></path><path d="M109.610667 844.842667c0 24.384-19.754667 44.117333-44.138667 44.117333S21.333333 869.205333 21.333333 844.842667c0-24.405333 19.754667-44.16 44.138667-44.16S109.610667 820.437333 109.610667 844.842667" p-id="14454" fill="#5192fc"></path></svg>