<?xml version="1.0" standalone="no"?><!DOCTYPE svg PUBLIC "-//W3C//DTD SVG 1.1//EN" "http://www.w3.org/Graphics/SVG/1.1/DTD/svg11.dtd"><svg t="1513152253775" class="icon" style="" viewBox="0 0 1024 1024" version="1.1" xmlns="http://www.w3.org/2000/svg" p-id="2001" xmlns:xlink="http://www.w3.org/1999/xlink" width="128" height="128"><defs><style type="text/css"></style></defs><path d="M21.3218 508.795423c10.101859-31.539392 71.93826-107.427573 155.649169-121.205172-37.434285 49.858115-46.310897 98.396734-50.826317 149.154505-2.167744 24.453525-11.515605 50.303659-41.684091 58.640478-31.110984 8.593863-57.355254-15.945343-63.138761-31.753596-5.783507-15.799684-10.101859-23.288255 0-54.836215zM394.602198 160.225594c-57.098209-52.899811-71.698351-60.876767-110.769155-84.276408-35.566426-21.291874-22.654211-63.618578 1.542269-71.484147 86.007176-27.949333 126.037613 82.1258 109.226886 155.760555zM753.291022 50.261847c-8.311114 23.399641-28.017879 26.389929-52.128677 30.485508-26.741223 4.541124-64.800984 17.230567-67.388568 20.160877s24.830524-84.567726 78.475765-96.588852c36.217606-8.131183 50.509295 19.372607 41.04148 45.942467zM859.690416 215.961466c70.336014-13.709054 108.010207 17.941724 137.904513 67.42284 16.245229 26.912586 14.617279 52.805562-9.939064 66.805933-27.957902 15.928207-54.819079 2.364812-65.066597-28.694763-12.638034-38.351078-26.818336-74.971388-62.898852-105.53401zM177.844921 178.030228c8.533886 1.610814 19.723901 2.04779 29.534443 5.95487 14.514461 5.774939 39.764824 22.996938 39.764824 22.996938s-17.993133 1.687927-37.605648 11.652696-37.768443 27.846515-59.574407 45.685421-51.55461 25.653067-69.993288 4.275511c-22.89412-26.561292-2.176312-58.374865 24.796251-75.416932s43.389155-16.339478 73.077825-15.148504z" p-id="2002" fill="#bfbfbf"></path><path d="M672.193401 182.005853c-132.737913-50.02091-276.537319-12.355285-371.369699 97.265737-87.506604 101.138544-105.491169 257.601689-40.030437 373.17758 20.452195 36.097652 78.150175 61.476538 75.305546 92.887408-3.135946 34.692474-17.59043 53.850877-66.44607 94.172631 130.304556 25.473136 224.939868 29.962851 343.934455-1.76504 170.086517-45.342695 275.826162-180.616784 274.660892-349.615145-0.942497-137.424696-85.227474-256.821986-216.054687-306.123171z m-260.90043 395.771815c-7.068731 6.768845-22.011599 18.250178-34.24693 7.58282-12.235331-10.658789-8.850908-23.151165 4.686783-34.135544l62.77033-50.877725s-67.208636-11.267129-79.006991-14.831483c-11.789786-3.564354-27.03254-10.821584-19.072721-30.545485 7.959819-19.732469 14.540165-15.688298 28.463423-12.740852 39.807665 11.695537 79.880943 22.405735 137.004856 38.265396-40.518822 39.233598-70.413127 68.39961-100.59875 97.282873z m353.128089-94.22404c-2.493334 13.863281-14.034644 16.536546-24.98475 14.454483-41.529865-7.934115-142.394228-25.987225-142.394229-25.987225s72.092487-75.19416 97.505646-109.852361c7.814161-10.658789 19.381175-6.546073 28.497695 1.525132 9.81911 8.688113 11.44706 18.558632 1.670791 27.846515-17.907452 17.024931-56.078598 58.974636-56.078598 58.974636s52.985493 3.333014 75.416932 6.391846c13.786167 1.867859 23.194005 10.967243 20.366513 26.646974z" p-id="2003" fill="#bfbfbf"></path><path d="M278.717853 963.241988a250.670048 60.251291 0 1 0 501.340096 0 250.670048 60.251291 0 1 0-501.340096 0Z" p-id="2004" fill="#bfbfbf"></path></svg>