<?xml version="1.0" standalone="no"?><!DOCTYPE svg PUBLIC "-//W3C//DTD SVG 1.1//EN" "http://www.w3.org/Graphics/SVG/1.1/DTD/svg11.dtd"><svg t="1512574398186" class="icon" style="" viewBox="0 0 1024 1024" version="1.1" xmlns="http://www.w3.org/2000/svg" p-id="8693" xmlns:xlink="http://www.w3.org/1999/xlink" width="128" height="128"><defs><style type="text/css"></style></defs><path d="M354.369 391.605c0 22.606 18.326 40.932 40.932 40.932s40.932-18.326 40.932-40.932-18.326-40.932-40.932-40.932-40.932 18.326-40.932 40.932z" p-id="8694" fill="#5192fc"></path><path d="M823.773 774.542L692.348 643.127c40.099-49.786 61.895-111.263 61.895-176.1 0-75.168-29.273-145.838-82.427-198.991-53.154-53.154-123.822-82.426-198.987-82.426s-145.833 29.273-198.988 82.426c-53.153 53.154-82.425 123.822-82.425 198.989 0 75.168 29.274 145.832 82.426 198.976 35.724 35.723 80.348 61.188 129.047 73.641a282.388 282.388 0 0 0 69.935 8.784c24.981 0 49.962-3.304 74.191-9.909 16.359-4.456 26.006-21.332 21.55-37.69-4.459-16.358-21.335-26.008-37.69-21.548-76.066 20.727-157.919-0.997-213.619-56.697-41.555-41.547-64.442-96.791-64.442-155.557 0-58.766 22.886-114.018 64.444-155.574 85.783-85.783 225.361-85.783 311.144 0 41.556 41.556 64.444 96.809 64.444 155.575s-22.886 114.016-64.443 155.568c-11.99 11.988-11.991 31.425-0.003 43.415a30.835 30.835 0 0 0 4.833 3.944 30.885 30.885 0 0 0 3.944 4.832L780.36 817.958c5.995 5.994 13.85 8.991 21.707 8.991s15.714-2.998 21.708-8.992c11.989-11.989 11.988-31.428-0.001-43.415z" p-id="8695" fill="#5192fc"></path></svg>